<svg width="16" height="16" viewBox="0 0 16 16" fill="none" xmlns="http://www.w3.org/2000/svg">
<g clip-path="url(#clip0_1_271)">
<path fill-rule="evenodd" clip-rule="evenodd" d="M13.1547 3.07178C12.4402 1.83417 11.1197 1.07178 9.69063 1.07178H6.30943C4.88037 1.07178 3.55986 1.83417 2.84533 3.07178L1.15473 5.99998C0.440203 7.23758 0.440203 8.76238 1.15473 9.99998L2.84533 12.9282C3.55986 14.1658 4.88037 14.9282 6.30943 14.9282H9.69063C11.1197 14.9282 12.4402 14.1658 13.1547 12.9282L14.8453 9.99998C15.5599 8.76238 15.5599 7.23758 14.8453 5.99998L13.1547 3.07178ZM8.00001 10.75C9.51879 10.75 10.75 9.51876 10.75 7.99998C10.75 6.4812 9.51879 5.24998 8.00001 5.24998C6.48122 5.24998 5.25001 6.4812 5.25001 7.99998C5.25001 9.51876 6.48122 10.75 8.00001 10.75Z" fill="white"/>
</g>
<defs>
<clipPath id="clip0_1_271">
<rect width="16" height="16" fill="white"/>
</clipPath>
</defs>
</svg>
