<svg width="40" height="40" viewBox="0 0 40 40" fill="none" xmlns="http://www.w3.org/2000/svg">
<rect width="40" height="40" rx="20" fill="#1F2024"/>
<g clip-path="url(#clip0_1_1023)">
<path fill-rule="evenodd" clip-rule="evenodd" d="M25.1547 15.0718C24.4402 13.8342 23.1197 13.0718 21.6906 13.0718H18.3094C16.8804 13.0718 15.5598 13.8342 14.8453 15.0718L13.1547 18C12.4402 19.2376 12.4402 20.7624 13.1547 22L14.8453 24.9282C15.5598 26.1658 16.8804 26.9282 18.3094 26.9282H21.6906C23.1197 26.9282 24.4402 26.1658 25.1547 24.9282L26.8453 22C27.5598 20.7624 27.5598 19.2376 26.8453 18L25.1547 15.0718ZM20 22.75C21.5188 22.75 22.75 21.5188 22.75 20C22.75 18.4812 21.5188 17.25 20 17.25C18.4812 17.25 17.25 18.4812 17.25 20C17.25 21.5188 18.4812 22.75 20 22.75Z" fill="white"/>
</g>
<defs>
<clipPath id="clip0_1_1023">
<rect width="16" height="16" fill="white" transform="translate(12 12)"/>
</clipPath>
</defs>
</svg>
